<?xml version="1.0" encoding="utf-8"?>
<!-- Generator: Adobe Illustrator 21.0.0, SVG Export Plug-In . SVG Version: 6.00 Build 0)  -->
<svg version="1.1" id="Layer_1" xmlns="http://www.w3.org/2000/svg" xmlns:xlink="http://www.w3.org/1999/xlink" x="0px" y="0px"
	 viewBox="0 0 167.9 175.8" style="enable-background:new 0 0 167.9 175.8;" xml:space="preserve">
<style type="text/css">
	.st0{fill:#FFFFFF;}
</style>
<g id="Layer_x0020_1">
	<path class="st0" d="M168,65.4c0,4.3-0.9,8.8-2.5,13.6c-1.8,5.1-3.9,8.5-6.2,10.1l5.6,1.6V97l-4.6,1.5c-0.5,1.9-1.1,5.2-1.7,9.7
		c-0.1,4.8,0.5,9.4,1.7,13.9l4.6,2.1v6.1L74.8,176l-58.2-50c-6.6-5.7-9.7-14.8-9.4-27.6c0.1-4,1-6.9,2.6-8.7c0.9-1,2.9-2.3,6.1-3.8
		c2.3-1.1,9.5-2.8,21.4-5l-15.6-7.3v-5l6-1.6c1.3-4.8,1.9-9.7,1.9-14.6c0-1.1-0.1-2.7-0.3-4.8L0.1,41.4v-5l3.8-0.5
		c1.4-3.7,2.1-8,2.1-13.1c0-5.1-0.7-9.6-2.1-13.3H0.1V5.9L52.2,0l92.3,6c4.4,0.3,8,2.2,10.9,5.7c2.9,3.5,4.4,8,4.4,13.6
		c0,7.6-3.7,13.3-11.1,17.2c6-0.1,10,0.6,12.1,2.2c2,1.5,3.8,4.6,5.3,9.3C167.3,58.2,168,62,168,65.4L168,65.4z M163.3,65.7
		c0.1-5.2-1-9.7-3.3-13.6c-2.1-3.6-4.4-5.3-6.9-5.1l-56,6.7c2.3,6.1,3.5,12.7,3.5,20.1c0,7.8-1.2,15.7-3.6,23.8l59.2-14
		c1.8-0.4,3.4-2.4,4.8-5.9C162.4,74.1,163.2,70.1,163.3,65.7z M67.7,22.9C67.8,17,66.3,12.4,63,9c-3.3-3.4-7.3-4.8-12-4.3L5.5,8.9
		c1.5,4.2,2.2,8.8,2.2,14c0,5-0.7,10-2.2,14.7l42.2,6.8c0.8,0.1,1.6,0.2,2.4,0.2c4.8,0,8.9-2,12.3-6C65.8,34.5,67.6,29.2,67.7,22.9z
		 M98.9,73.8c0-7.3-1.2-14-3.6-20.1l-17.1-3.2c-11.4,1.6-19.4,2.4-23.9,2.4c-1.1,0-2-0.1-2.6-0.2L31,48.2c0.2,2.2,0.3,3.9,0.3,5
		c0,4.9-0.8,10.4-2.5,16.4l66.5,27.9C97.7,89.5,98.9,81.5,98.9,73.8L98.9,73.8z M159.6,125.3c-1.7-5.4-2.5-10.9-2.4-16.4
		c0-2.5,0.5-5.8,1.6-9.9l-82.2,28.1c-1.3,4.4-2,9.6-2,15.6c0,7.2,0.7,14.3,2.2,21.3L159.6,125.3L159.6,125.3z M74.6,164
		c-1.4-7-2.1-14.1-2.1-21.3c0-6,0.7-11.2,2.1-15.6L22.7,93c-1.5-1-3-1.5-4.5-1.5c-3.9,0-5.8,3.2-5.7,9.5c0.2,8.9,2.1,14.8,5.7,17.7
		L74.6,164L74.6,164z"/>
</g>
</svg>
